<svg width="1200" height="520" viewBox="0 0 1200 520" fill="none" xmlns="http://www.w3.org/2000/svg">
  <rect width="1200" height="520" rx="28" fill="#FBF6E8"/>
  <rect x="50" y="78" width="300" height="364" rx="28" fill="#FFFDF7" stroke="#E8DDBE" stroke-width="3"/>
  <rect x="450" y="78" width="300" height="364" rx="28" fill="#FFFDF7" stroke="#E8DDBE" stroke-width="3"/>
  <rect x="850" y="78" width="300" height="364" rx="28" fill="#FFFDF7" stroke="#E8DDBE" stroke-width="3"/>

  <text x="92" y="130" fill="#3A3122" font-family="Georgia, serif" font-size="32">Query item</text>
  <text x="490" y="130" fill="#3A3122" font-family="Georgia, serif" font-size="32">Steer away from red</text>
  <text x="925" y="130" fill="#3A3122" font-family="Georgia, serif" font-size="32">Desired retrieval</text>

  <g transform="translate(95 165)">
    <path d="M70 34C70 15.2223 85.2223 0 104 0H126C144.778 0 160 15.2223 160 34V46C160 54.8366 163.369 63.3417 169.421 69.7801L203.804 106.343C212.344 115.426 205.904 130 193.481 130H36.5188C24.096 130 17.6562 115.426 26.1956 106.343L60.5791 69.7801C66.6311 63.3417 70 54.8366 70 46V34Z" fill="#C85252"/>
    <rect x="63" y="131" width="104" height="12" rx="6" fill="#E7D9B0"/>
    <text x="26" y="190" fill="#5B503E" font-family="Arial, sans-serif" font-size="28">Red t-shirt</text>
  </g>

  <g transform="translate(500 185)">
    <path d="M64 32C64 14.3269 78.3269 0 96 0H116C133.673 0 148 14.3269 148 32V44C148 52.3172 151.17 60.3202 156.865 66.3808L189.228 100.819C197.266 109.372 191.203 123 179.545 123H32.4546C20.7975 123 14.7341 109.372 22.7724 100.819L55.1352 66.3808C60.8302 60.3202 64 52.3172 64 44V32Z" fill="#C85252"/>
    <line x1="13" y1="11" x2="196" y2="154" stroke="#3A3122" stroke-width="10" stroke-linecap="round"/>
    <text x="-6" y="203" fill="#5B503E" font-family="Arial, sans-serif" font-size="26">Negative direction of</text>
    <text x="40" y="236" fill="#5B503E" font-family="Arial, sans-serif" font-size="26">the red probe</text>
  </g>

  <g transform="translate(905 155)">
    <path d="M64 32C64 14.3269 78.3269 0 96 0H116C133.673 0 148 14.3269 148 32V44C148 52.3172 151.17 60.3202 156.865 66.3808L189.228 100.819C197.266 109.372 191.203 123 179.545 123H32.4546C20.7975 123 14.7341 109.372 22.7724 100.819L55.1352 66.3808C60.8302 60.3202 64 52.3172 64 44V32Z" fill="#4F76C7"/>
    <path d="M64 172C64 154.327 78.3269 140 96 140H116C133.673 140 148 154.327 148 172V184C148 192.317 151.17 200.32 156.865 206.381L189.228 240.819C197.266 249.372 191.203 263 179.545 263H32.4546C20.7975 263 14.7341 249.372 22.7724 240.819L55.1352 206.381C60.8302 200.32 64 192.317 64 184V172Z" fill="#4E9B6E"/>
    <path d="M64 312C64 294.327 78.3269 280 96 280H116C133.673 280 148 294.327 148 312V324C148 332.317 151.17 340.32 156.865 346.381L189.228 380.819C197.266 389.372 191.203 403 179.545 403H32.4546C20.7975 403 14.7341 389.372 22.7724 380.819L55.1352 346.381C60.8302 340.32 64 332.317 64 324V312Z" fill="#2E2E35"/>
    <text x="5" y="451" fill="#5B503E" font-family="Arial, sans-serif" font-size="28">Same shirt, different colors</text>
  </g>

  <path d="M368 260C403 260 411 260 436 260" stroke="#A88035" stroke-width="8" stroke-linecap="round"/>
  <path d="M418 238L452 260L418 282" stroke="#A88035" stroke-width="8" stroke-linecap="round" stroke-linejoin="round"/>

  <path d="M768 260C803 260 811 260 836 260" stroke="#A88035" stroke-width="8" stroke-linecap="round"/>
  <path d="M818 238L852 260L818 282" stroke="#A88035" stroke-width="8" stroke-linecap="round" stroke-linejoin="round"/>
</svg>
